<?xml version="1.0" encoding="UTF-8"?>
<svg xmlns="http://www.w3.org/2000/svg" version="1.1" viewBox="0 0 2500 2500">
  <defs>
    <style>
      .cls-1 {
        fill: #f8f8f8;
      }

      .cls-1, .cls-2 {
        fill-rule: evenodd;
      }

      .cls-2 {
        fill: #fff;
        fill-opacity: 0;
      }
    </style>
  </defs>
  <!-- Generator: Adobe Illustrator 28.7.3, SVG Export Plug-In . SVG Version: 1.2.0 Build 164)  -->
  <g>
    <g id="Layer_1">
      <g>
        <path class="cls-2" d="M0,0h2500v2500H0V0Z"/>
        <path class="cls-1" d="M2137.4,1734.5c113.9-141.5,201.8-315.7,201.8-526.5s-47.1-242.4-110.7-362.3c-61.5-116-186.2-216.5-286.8-268.4,9.9-11.4,50.2-60.1,65.4-69,26.6-15.5,76.9-40.5,155.2-56.8l3.8-11.8-544.8-8.4s165.5,57.7,176.2,77.2c-221.8-68-433-52-433-52,2.3-5.4,5.4-11.7,9.7-19.2,46.4-81,254.7-101.4,287.1-106.9,32.4-5.4,46.4-27,46.4-27h-925.1l-2.2-3.2s8.7,29.1,46.4,35.6c31.3,8.6,85.3,0,181.3,32.4,68.7,29.1,100.5,63.9,115.1,88.3,0,0-316.1-.8-427.1,51,0-16.2,149.2-72.8,149.2-72.8l-509.1,3.4,1.7,15.1c64.6,23,163.9,41.4,208,129.2-103.6,51.6-232.4,173.4-295.2,291.9-63.6,119.9-90,174.8-90,331.9s44.9,350.2,158.7,491.7c56.8,70.5,134.4,148.9,218.1,187.9-4,28.5-23.9,49.5-31.9,62.1-34.4,47.4-62.1,46.1-110.7,60.4-57,10.9-83.9,59.5-83.9,59.5h687.8s-4.2-20.1-36.9-34.4l-134.6-15.5s-94.4-22.7-93.5-54.9c77.6,21,106.1,28.5,196.3,40.3l200.4,31s-28.9,120.8-285.6,110.7c-25.1,0-34,54.1-34,54.1l870.6.8s0-44.8-34-43.5c-250.4-6.3-280.5-118.3-280.5-118.3l148.4-28.1,129.2-18.4,103.2-28.5s-17.2,39.8-76.3,50.3c0,3.4-111,9.6-137.5,13.4-43.6,6.3-40.3,41.1-40.3,41.1h688.6c6.7-24.3-46.2-45.3-46.2-45.3l-54.4-13.4c-32.7-5.9-56.2-21-99.8-56.2-13.4-12.6-33.3-35.1-37.3-65.8,79.8-38.7,138-84.5,192.8-152.5h0ZM1768.9,632.7l-292.6,631.7-139.3-234.1v-453c.3-1,.6-27.4.9-28.4,184.2-21.9,359.1,44.3,431.1,83.9h0ZM1336.9,1231.7l86.9,145.1-86.9,186.7v-331.8ZM1143.1,548.8c.3,1-1.1,12.7.3,28.4v471.8l-135.8,209.2-278.7-632.2c65.7-31.1,239.4-106.6,414.3-77.2h0ZM548.5,1739.8c-3.2-3.7-6.5-7.2-9.6-11-101.1-121.3-151.6-303.3-151.6-511s50.6-330.9,151.6-451.5c3.1-3.7,6.3-7.2,9.5-10.8,0,3.1.1,6.1.1,9.4v975ZM669.7,1825.8c-7.6,12.6-10.6,21.1-19.7,14.7-.1-7-.2-14.2-.2-21.7l2.7-1085.4,295.8,624.4-278.6,468.1ZM1132.1,1851.2c-1.3,4.4-2.8,72.9-4.3,76.4-91.5,10.9-160.7.8-222.7-6.7-60-10.1-105-23.8-154.3-40.3l249.8-410.8,131.6,283v98.4ZM1148.8,1563.6l-90.1-190.9,90.1-141.2v332.2ZM1564.2,1922.6c-71.3,7.1-126.7,22.2-222.9,11.7-1.5-3.5-3-78.7-4.4-83.1v-62.8l144.6-315.5,245.4,406c-51.9,18.6-95.6,33.1-162.7,43.6h0ZM1836.7,1807.4c0,5,0,9.8-.1,14.6-9.6,7.2-9.2,10.5-19.1,16.8l-284.3-478.6,303.5-662.3v1109.5h0ZM1930.1,1739.8c-.1.1-.2-28.3-.3-28.2v-988.9l.3.3c101.1,120.6,170.9,287.6,170.9,496.7s-69.8,398.7-170.9,520h0Z"/>
      </g>
    </g>
  </g>
</svg>